<svg width="667" height="73" viewBox="0 0 667 73" fill="none" xmlns="http://www.w3.org/2000/svg">
<g filter="url(#filter0_d_23_241)">
<path d="M647.227 16.8197H267.227H45.7266L37.2266 30.5844L22.7266 40.2707L17.7266 51.4864V65.3197L28.7266 68.8197L623.727 68.8197L658.727 40.2707V27.5256L655.727 20.8982L647.227 16.8197Z" fill="url(#paint0_linear_23_241)"/>
<mask id="mask0_23_241" style="mask-type:alpha" maskUnits="userSpaceOnUse" x="17" y="16" width="642" height="53">
<path d="M647.227 16.8197H267.227H45.7266L37.2266 30.5844L22.7266 40.2707L17.7266 51.4864V64.8197L28.7266 68.8197L623.727 68.8197L658.727 40.2707V27.5256L655.727 20.8982L647.227 16.8197Z" fill="url(#paint1_linear_23_241)"/>
</mask>
<g mask="url(#mask0_23_241)">
<path d="M647.227 16.8197H267.227H45.7266L37.2266 30.5844L22.7266 40.2707L17.7266 51.4864L19.2266 66.3197L28.7266 68.8197L623.727 68.8197L658.727 40.2707V27.5256L655.727 20.8982L647.227 16.8197Z" fill="url(#paint2_linear_23_241)" fill-opacity="0.75"/>
</g>
<path d="M654.797 32.4892C654.797 23.1037 644.555 18.3606 639.435 16.8468H645.877C651.494 16.5105 662.727 19.168 662.727 32.4892C662.727 45.8104 644.225 62.26 634.974 68.8197H606.727C622.75 60.4099 654.797 43.5902 654.797 32.4892Z" fill="url(#paint3_linear_23_241)"/>
<path d="M4.69458 51.499C4.69458 40.0178 18.334 27.7448 25.1537 23.2909L40.6227 16.8575H275.653C270.663 16.8575 260.184 27.2499 253.697 33.6833C248.507 38.8301 237.23 42.0963 230.244 42.0963H40.498C34.3329 42.0963 27.906 43.189 23.6234 47.6238C21.1439 50.1914 19.1656 53.3954 19.1656 56.9426C19.1656 64.0689 25.7265 67.8197 28.7265 68.8197C20.7425 67.665 4.69458 62.9801 4.69458 51.499Z" fill="url(#paint4_linear_23_241)"/>
<path d="M7.68861 53.4785C4.98847 44.7754 16.6707 33.5184 20.6627 30.2192L22.6587 25.2704H28.6467L26.6507 30.2192C21.4944 36.1577 10.1836 42.5983 10.1836 52.4887C10.1836 56.0519 12.1796 57.9324 16.6706 62.8812C12.6786 60.4068 9.68457 59.9119 7.68861 53.4785Z" fill="white"/>
<path d="M47.2917 12.2702L32.244 24.2549C31.0603 25.1976 30.5164 26.727 30.8391 28.2054L34.9193 46.901L22.842 31.9866C21.887 30.8072 20.3464 30.2634 18.8627 30.5818L-5.9733e-05 34.6308L15.0477 22.6461C16.2313 21.7034 16.7753 20.174 16.4526 18.6956L12.3724 -4.69658e-06L24.4497 14.9144C25.4047 16.0938 26.9453 16.6376 28.429 16.3192L47.2917 12.2702Z" fill="url(#paint5_linear_23_241)"/>
<path fill-rule="evenodd" clip-rule="evenodd" d="M28.6271 23.3436L38.9605 16.2095L26.5672 19.7655C25.776 19.2013 24.8116 18.861 23.7682 18.8383L16.3445 8.26248L19.9173 20.5091C19.1875 21.3275 18.7268 22.3873 18.6722 23.5523L8.3313 30.6916L20.1451 27.3018C21.0468 28.1876 22.2873 28.7347 23.6568 28.7347C23.768 28.7347 23.8784 28.7311 23.9878 28.724L30.9473 38.6386L27.526 26.9112C28.2266 26.059 28.6468 24.9711 28.6468 23.7859C28.6468 23.6368 28.6401 23.4893 28.6271 23.3436Z" fill="#FFFFFB"/>
<path d="M165.165 36.3081C165.344 35.4467 165.492 34.6427 165.641 33.8387C165.88 32.6041 166.118 31.3694 166.356 30.1348C166.356 30.0199 166.386 29.9051 166.386 29.7902C166.386 29.4456 166.446 29.0149 166.029 28.9001C165.671 28.814 165.195 28.814 164.837 28.9288C164.301 29.1298 164.033 29.6179 163.914 30.1348C163.645 31.312 163.407 32.5179 163.169 33.6952C163.02 34.4417 162.841 35.1595 162.722 35.9061C162.662 36.1932 162.543 36.3368 162.215 36.3368C161.322 36.3368 160.428 36.3368 159.445 36.3368C159.534 35.82 159.594 35.3318 159.683 34.8437C160.219 32.116 160.785 29.3882 161.322 26.6605C161.322 26.5169 161.56 26.3159 161.679 26.3159C162.424 26.2872 163.169 26.3159 163.914 26.3159C164.003 26.3159 164.152 26.5169 164.182 26.6605C164.182 26.804 164.152 26.9763 164.182 27.206C164.331 27.0912 164.48 27.005 164.599 26.8902C165.671 25.9139 166.982 25.7704 168.323 26.0288C168.74 26.1149 169.097 26.5743 169.425 26.8902C169.574 27.0337 169.663 27.2634 169.753 27.407C169.961 27.206 170.199 27.0337 170.378 26.8615C171.51 25.8852 172.851 25.7417 174.251 26.0288C174.996 26.1723 175.562 26.7753 175.592 27.5219C175.621 28.4407 175.592 29.3882 175.443 30.2783C175.115 32.1447 174.728 34.011 174.311 35.9061C174.311 36.0497 174.132 36.2794 174.013 36.2794C173 36.2794 172.017 36.2794 170.944 36.2794C171.123 35.3893 171.302 34.5279 171.451 33.6952C171.689 32.5467 171.927 31.3981 172.136 30.2496C172.166 30.0486 172.196 29.8763 172.196 29.6753C172.196 29.3308 172.196 28.9575 171.808 28.8427C171.451 28.7565 171.004 28.7278 170.676 28.8714C170.08 29.1298 169.782 29.6753 169.663 30.2783C169.276 32.0585 168.918 33.8387 168.561 35.619C168.412 36.2794 168.442 36.2794 167.727 36.2794C167.042 36.2794 166.356 36.2794 165.671 36.2794C165.522 36.2794 165.373 36.2794 165.135 36.2794L165.165 36.3081Z" fill="white"/>
<path d="M53.5076 36.3368C52.3755 36.3368 51.3329 36.3368 50.2604 36.3368C50.1412 36.3368 49.9625 36.1071 49.9327 35.9635C49.6645 34.6714 49.4262 33.3506 49.1581 32.0298C49.0985 31.6566 49.0091 31.312 48.9496 30.9387C48.89 30.6803 48.8304 30.4506 48.5027 30.4793C48.2048 30.4793 47.9664 30.5655 47.9069 30.91C47.6983 32.116 47.4302 33.2932 47.2217 34.4704C47.1323 34.9873 47.0429 35.5328 46.9238 36.0497C46.9238 36.1645 46.745 36.3081 46.6556 36.3081C45.6725 36.3081 44.7192 36.3081 43.6467 36.3081C44.6 31.3981 45.5832 26.4882 46.5663 21.5496C46.6854 21.5496 46.8642 21.4921 47.0429 21.4921C48.5027 21.4921 49.9922 21.4921 51.452 21.4921C53.7161 21.5208 55.0567 22.7268 55.1461 24.8803C55.2355 27.1486 54.4013 28.7853 52.2862 29.7615C52.018 29.8764 51.9883 30.0486 52.0478 30.2783C52.5245 32.1734 53.0012 34.0972 53.4778 36.021C53.4778 36.1071 53.4778 36.1932 53.4778 36.3368H53.5076ZM48.5027 28.0387C49.3964 28.1536 50.2008 28.1249 50.886 27.5793C51.5116 27.0912 51.8393 26.0001 51.601 25.1961C51.3626 24.3921 50.6477 24.4209 50.022 24.3921C49.1283 24.306 49.2773 24.2486 49.0985 25.0238C49.0687 25.1961 49.0091 25.3684 48.9793 25.5407C48.8006 26.3734 48.6516 27.1773 48.4729 28.0387H48.5027Z" fill="white"/>
<path d="M211.877 36.3368C210.775 36.3368 209.732 36.3368 208.69 36.3368C208.571 36.3368 208.362 36.1358 208.332 35.9923C208.034 34.614 207.796 33.2071 207.528 31.8001C207.468 31.4843 207.409 31.1972 207.349 30.8813C207.319 30.6229 207.17 30.4506 206.902 30.4793C206.634 30.4793 206.396 30.5368 206.336 30.8813C206.038 32.4893 205.681 34.0972 205.413 35.7051C205.323 36.1645 205.204 36.3655 204.668 36.3368C203.804 36.2794 202.94 36.3368 202.016 36.3368C202.225 35.2457 202.434 34.212 202.642 33.2071C203.387 29.4457 204.161 25.6555 204.906 21.8941C204.966 21.607 205.055 21.5208 205.353 21.5208C207.021 21.5208 208.66 21.4347 210.328 21.5496C212.414 21.6931 213.486 22.9278 213.575 24.8803C213.665 27.0338 212.89 28.7853 210.716 29.7902C210.418 29.9338 210.418 30.1061 210.507 30.3645C210.984 32.2595 211.46 34.1546 211.907 36.0497C211.907 36.1358 211.907 36.222 211.907 36.3655L211.877 36.3368ZM206.902 28.0674C207.17 28.0674 207.409 28.0674 207.647 28.0674C209.434 28.1249 210.328 26.8615 210.03 25.1961C210.001 24.9664 209.703 24.6506 209.464 24.5644C208.988 24.4209 208.451 24.3922 207.915 24.3347C207.826 24.3347 207.677 24.4496 207.647 24.5644C207.409 25.713 207.17 26.8615 206.932 28.0674H206.902Z" fill="white"/>
<path d="M74.1528 27.2061C74.272 26.6318 74.3911 26.115 74.5103 25.5981C74.8678 23.7892 75.2253 21.9803 75.6126 20.1713C75.6126 20.0565 75.7913 19.8555 75.9105 19.8555C76.8638 19.8555 77.8171 19.8555 78.83 19.8555C78.6513 20.7456 78.4725 21.5783 78.3236 22.3823C77.4298 26.8902 76.5063 31.3695 75.6126 35.8774C75.553 36.2507 75.404 36.3655 75.0167 36.3368C74.1826 36.3081 73.3484 36.3368 72.4845 36.3368C72.5143 35.9635 72.5441 35.619 72.6037 35.2457C72.127 35.5616 71.7397 35.9061 71.2928 36.1358C70.4587 36.5952 69.565 36.7962 68.6116 36.5665C67.4498 36.3081 66.7348 35.5616 66.4965 34.4992C65.9304 32.1447 66.3177 29.9051 67.8371 27.9239C68.8202 26.6605 70.1012 25.914 71.8291 25.9427C72.6037 25.9427 73.2293 26.2011 73.7655 26.7466C73.8847 26.8615 73.9741 26.9763 74.1528 27.1773V27.2061ZM69.8629 32.1734C69.8629 32.6328 69.9225 32.9774 70.0714 33.3219C70.131 33.4368 70.3097 33.6091 70.4289 33.6091C71.0247 33.6952 71.5908 33.7526 72.0674 33.2645C73.0803 32.2883 73.2591 31.0536 73.1101 29.7902C73.0207 28.9576 72.2462 28.5843 71.4716 28.9288C70.9354 29.1873 70.5183 29.5605 70.3097 30.0774C70.0416 30.7665 69.8331 31.4556 69.8331 32.1447L69.8629 32.1734Z" fill="white"/>
<path d="M145.175 19.8268C144.46 23.3298 143.775 26.7179 143.09 30.1348C143.149 30.1348 143.179 30.1635 143.238 30.1922C143.447 29.9338 143.685 29.6753 143.894 29.4169C144.609 28.5555 145.324 27.6654 146.039 26.7753C146.307 26.4308 146.635 26.2872 147.052 26.2872C148.065 26.2872 149.078 26.2872 150.09 26.2872C150.09 26.3446 150.09 26.4021 150.12 26.4595C149.971 26.6318 149.793 26.804 149.644 26.9763C148.541 28.1536 147.439 29.3021 146.367 30.4793C146.247 30.5942 146.247 30.8526 146.307 31.0249C146.873 32.6615 147.469 34.2694 148.065 35.8774C148.094 35.9922 148.124 36.1358 148.184 36.2794C148.065 36.2794 147.975 36.3368 147.886 36.3368C146.873 36.3368 145.86 36.3368 144.877 36.3368C144.549 36.3368 144.43 36.2219 144.341 35.9348C143.953 34.7001 143.566 33.4368 143.179 32.2021C143.119 31.9724 143.03 31.7714 142.851 31.5704C142.553 33.0061 142.255 34.413 141.957 35.8487C141.868 36.2219 141.749 36.3655 141.302 36.3368C140.557 36.2794 139.783 36.3368 139.038 36.3368C138.889 36.3368 138.74 36.3368 138.531 36.3368C138.74 35.3605 138.919 34.4417 139.098 33.5229C139.932 29.4456 140.766 25.3684 141.6 21.3198C141.689 20.9178 141.749 20.5159 141.868 20.1139C141.868 19.999 142.077 19.8842 142.166 19.8842C143.149 19.8842 144.132 19.8842 145.235 19.8842L145.175 19.8268Z" fill="white"/>
<path d="M116.992 36.3368C117.112 35.6476 117.231 35.016 117.35 34.413C118.184 30.3357 119.018 26.2297 119.823 22.1525C119.823 22.0376 119.823 21.8941 119.882 21.8079C119.942 21.6931 120.061 21.5208 120.18 21.5208C121.908 21.5208 123.606 21.4634 125.334 21.5495C127.241 21.6644 128.551 23.0713 128.611 24.9089C128.611 25.9139 128.551 26.8901 128.134 27.809C127.27 29.704 125.572 30.508 123.576 30.8238C122.981 30.91 122.385 30.8813 121.759 30.8526C121.431 30.8526 121.312 30.9674 121.253 31.2545C120.955 32.805 120.627 34.3556 120.299 35.9061C120.24 36.2506 120.061 36.3655 119.703 36.3368C118.84 36.308 117.946 36.3368 116.963 36.3368H116.992ZM121.908 28.0961C122.266 28.0961 122.563 28.0961 122.832 28.0961C123.934 28.0961 124.947 27.2921 125.036 26.4307C125.245 24.7367 124.887 24.5644 123.487 24.3921C122.623 24.2773 122.593 24.3347 122.444 25.1386C122.444 25.2248 122.414 25.3109 122.385 25.3971C122.206 26.2872 122.057 27.1486 121.878 28.0961H121.908Z" fill="white"/>
<path d="M62.8917 27.1773C62.8917 27.0337 62.8321 26.8614 62.8917 26.7466C62.9811 26.5743 63.13 26.3446 63.279 26.3446C64.1429 26.3159 65.0069 26.3446 65.9304 26.3446C65.8112 27.005 65.6921 27.608 65.5729 28.2109C65.0367 30.7951 64.5302 33.408 63.994 35.9922C63.994 36.1358 63.8152 36.3367 63.6961 36.3367C62.7725 36.3367 61.849 36.3367 60.8361 36.3367C60.8361 36.0209 60.8957 35.7051 60.8957 35.3892C60.4786 35.6763 60.1211 35.9635 59.704 36.1645C58.8401 36.5952 57.9166 36.8249 56.9335 36.5665C55.712 36.2506 55.0864 35.3892 54.8481 34.2981C54.2821 31.7139 54.8779 29.3882 56.7845 27.4357C57.8868 26.2872 59.3168 25.8565 60.9553 26.0287C61.6703 26.1149 62.1171 26.603 62.5938 27.0337C62.6832 27.0911 62.713 27.206 62.7725 27.2634C62.8023 27.2634 62.8619 27.2347 62.8917 27.206V27.1773ZM61.5809 30.3644C61.5809 30.3644 61.5809 30.1347 61.5809 30.0486C61.4915 28.9575 60.7169 28.5555 59.7338 29.0723C59.4955 29.2159 59.2572 29.3882 59.0784 29.6179C58.3634 30.4793 58.1251 31.4842 58.2145 32.5753C58.2443 33.0347 58.3634 33.4942 58.8699 33.6377C59.4359 33.7813 59.9722 33.7813 60.4786 33.3506C61.4021 32.5466 61.5809 31.4842 61.6405 30.3931L61.5809 30.3644Z" fill="white"/>
<path d="M89.7038 36.3368C89.7038 36.0209 89.7633 35.7625 89.7633 35.5328C89.7633 35.4754 89.7633 35.4179 89.7038 35.3031C89.5548 35.4467 89.4356 35.5615 89.2867 35.6476C88.1248 36.4803 86.9034 36.9684 85.4436 36.4229C84.4307 36.0496 83.9541 35.2744 83.6562 34.3268C83.0603 32.4318 83.6859 28.6416 86.0394 26.9476C87.2013 26.1149 88.4525 25.7416 89.8527 26.0288C90.2698 26.1149 90.6571 26.4595 91.0444 26.7466C91.1933 26.8614 91.2827 27.0337 91.4316 27.2347C91.4912 27.1199 91.5806 27.0337 91.5806 26.9476C91.5806 26.4307 91.9083 26.2872 92.385 26.2872C93.1297 26.2872 93.9043 26.2872 94.7385 26.2872C94.6193 26.8902 94.5001 27.4357 94.381 28.01C93.8447 30.5941 93.3085 33.1783 92.802 35.7338C92.7127 36.1932 92.5339 36.3368 92.0573 36.308C91.2827 36.2793 90.4783 36.308 89.674 36.308L89.7038 36.3368ZM86.9928 32.1446C86.9928 32.3169 86.963 32.5179 86.9928 32.6615C87.0821 33.006 87.1119 33.4367 87.5588 33.5803C88.1546 33.7813 88.7504 33.7813 89.2569 33.3219C90.1208 32.6041 90.6869 30.6229 90.3294 29.5892C90.1208 28.9575 89.4654 28.6416 88.8696 28.9288C88.4525 29.1298 88.0652 29.3882 87.7971 29.7327C87.2311 30.4219 87.0226 31.2545 87.0226 32.1446H86.9928Z" fill="white"/>
<path d="M183.337 25.9427C185.453 25.7704 187.032 27.4932 187.091 29.7615C187.151 32.0299 186.466 34.0398 184.499 35.4467C182.95 36.5665 181.192 36.9398 179.286 36.423C177.915 36.0497 177.051 35.1596 176.813 33.8101C176.485 32.116 176.724 30.4506 177.647 28.9289C178.839 27.0338 180.567 26.0288 183.337 25.9427ZM181.431 33.6952C181.818 33.6952 182.146 33.5804 182.444 33.2645C183.397 32.317 183.725 31.1685 183.546 29.8764C183.397 28.9289 182.593 28.613 181.669 29.015C180.418 29.5605 179.852 31.4843 180.06 32.6616C180.209 33.4368 180.507 33.6665 181.401 33.6665L181.431 33.6952Z" fill="white"/>
<path d="M133.884 25.9713C136.476 25.799 138.025 27.4644 138.114 29.7327C138.174 31.8001 137.638 33.6664 135.999 35.0734C134.331 36.5377 132.335 36.9972 130.13 36.3368C128.82 35.9348 128.134 34.9872 127.866 33.7526C127.3 31.2545 128.432 28.4119 130.577 26.9763C131.59 26.2872 132.722 25.9139 133.884 25.9426V25.9713ZM131.233 32.0585C131.233 32.2882 131.233 32.5466 131.233 32.7189C131.292 33.0347 131.471 33.4367 131.739 33.5516C132.335 33.81 132.99 33.7813 133.497 33.3219C134.391 32.4892 134.748 31.4555 134.748 30.2783C134.748 29.704 134.599 29.2446 134.003 28.9575C133.437 28.6704 132.931 28.9001 132.514 29.1872C131.471 29.8763 131.233 30.9387 131.233 32.0585Z" fill="white"/>
<path d="M100.697 36.3368C100.875 35.3893 101.054 34.5279 101.233 33.6378C101.441 32.5467 101.68 31.4269 101.888 30.3358C101.918 30.1635 101.948 29.9912 101.948 29.8189C101.978 28.9288 101.292 28.4981 100.429 28.9288C99.8625 29.2159 99.5348 29.7041 99.4157 30.2783C99.0582 31.915 98.7305 33.5803 98.4028 35.217C98.1644 36.3368 98.1346 36.3368 96.943 36.3368C96.3174 36.3368 95.662 36.3368 95.0364 36.3368C95.0364 36.3368 94.9768 36.3368 94.8576 36.2507C95.513 32.9774 96.1684 29.6466 96.8238 26.3446C97.7176 26.3446 98.5815 26.3446 99.4454 26.3446C99.6838 26.3446 99.8029 26.4308 99.7434 26.6892C99.7136 26.8615 99.6838 27.0625 99.654 27.3496C99.8625 27.1773 99.9817 27.0625 100.101 26.9763C101.203 25.9714 102.544 25.7991 103.944 26.0862C104.689 26.2298 105.314 27.0625 105.374 27.809C105.463 28.9862 105.225 30.1348 104.987 31.2833C104.659 32.8051 104.361 34.3269 104.093 35.8487C104.033 36.1932 103.884 36.3655 103.497 36.3368C102.603 36.3368 101.71 36.3368 100.697 36.3368Z" fill="white"/>
<path d="M187.717 36.3368C187.836 35.7051 187.925 35.1021 188.044 34.5279C188.551 31.9437 189.087 29.3308 189.594 26.7466C189.653 26.4308 189.772 26.3159 190.1 26.3159C190.726 26.3159 191.351 26.3159 191.947 26.3159C192.513 26.3159 192.513 26.3159 192.424 26.8902C192.424 26.9763 192.424 27.0625 192.424 27.2347C192.602 27.1199 192.751 27.0625 192.871 26.9476C193.943 26.0001 195.254 25.7991 196.624 26.0288C197.339 26.1437 198.084 26.8615 198.114 27.6367C198.144 28.5268 198.114 29.4457 197.935 30.3071C197.607 32.1447 197.19 33.9823 196.833 35.82C196.773 36.1645 196.654 36.3368 196.207 36.3081C195.313 36.2507 194.42 36.3081 193.466 36.3081C193.526 35.8774 193.586 35.5328 193.645 35.1596C193.973 33.4942 194.301 31.8576 194.628 30.1922C194.658 30.0199 194.688 29.8476 194.688 29.6754C194.688 28.8714 194.152 28.5268 193.377 28.814C192.692 29.0437 192.334 29.5605 192.185 30.1922C191.947 31.2546 191.739 32.3457 191.53 33.4081C191.351 34.2695 191.173 35.1309 190.994 35.9635C190.994 36.0784 190.815 36.2794 190.696 36.2794C189.713 36.2794 188.759 36.2794 187.717 36.2794V36.3368Z" fill="white"/>
<path d="M152.504 32.2308C152.533 33.4368 153.189 33.9823 154.321 33.8675C155.095 33.81 155.781 33.5229 156.406 33.1209C156.525 33.0635 156.615 33.0061 156.764 32.9199C157.091 33.6378 157.36 34.3269 157.657 35.016C157.777 35.3031 157.598 35.4754 157.36 35.5902C156.853 35.8199 156.376 36.1071 155.84 36.2219C154.5 36.5378 153.159 36.8536 151.729 36.4516C150.329 36.0209 149.435 35.1595 149.197 33.7813C148.839 31.5417 149.316 29.4744 150.954 27.7803C152.384 26.2872 154.202 25.7417 156.287 26.0575C157.479 26.2298 158.611 27.407 158.641 28.6991C158.67 29.7615 158.521 30.8526 158.462 31.915C158.462 32.1447 158.283 32.2021 158.045 32.2021C156.436 32.2021 154.827 32.2308 153.219 32.2595C152.98 32.2595 152.742 32.2595 152.444 32.2595L152.504 32.2308ZM152.861 30.4793C153.755 30.4793 154.619 30.4793 155.483 30.4793C155.572 30.4793 155.721 30.307 155.721 30.2209C155.721 29.8763 155.661 29.5605 155.572 29.2159C155.483 28.9001 155.244 28.7565 154.887 28.7565C154.023 28.7565 153.129 29.4744 152.861 30.4793Z" fill="white"/>
<path d="M232.97 32.2882C233.208 33.4367 233.595 33.9248 234.429 33.8961C235.263 33.8961 236.068 33.6951 236.723 33.207C236.842 33.1209 236.962 33.0347 237.14 32.8912C237.468 33.6377 237.796 34.3268 238.064 35.0446C238.123 35.1595 237.974 35.4753 237.826 35.5328C235.978 36.4803 234.012 36.9684 231.957 36.3655C230.646 35.9922 229.931 35.0446 229.693 33.7813C229.216 31.5417 230.139 28.3258 232.701 26.7753C233.982 26 235.353 25.8277 236.813 26.0287C237.945 26.201 238.928 27.2634 239.136 28.4693C239.345 29.6179 239.226 30.7377 238.928 31.8575C238.898 32.0011 238.63 32.1446 238.481 32.1733C237.2 32.2021 235.949 32.2308 234.668 32.2308C234.251 32.2308 233.833 32.2308 233.416 32.2308C233.267 32.2308 233.119 32.2308 232.97 32.2595V32.2882ZM233.267 30.508C234.221 30.508 235.085 30.508 235.978 30.508C236.068 30.508 236.247 30.3931 236.247 30.3357C236.217 29.9337 236.217 29.5317 236.038 29.1872C235.829 28.7278 234.966 28.6703 234.459 29.0149C233.923 29.3882 233.595 29.905 233.297 30.5367L233.267 30.508Z" fill="white"/>
<path d="M218.253 26.3158C218.104 27.1198 217.925 27.8664 217.806 28.6129C217.568 29.9624 217.299 31.2832 217.061 32.6327C217.001 33.006 216.942 33.4654 217.448 33.6951C218.014 33.9535 218.759 33.7813 219.027 33.2357C219.295 32.7189 219.474 32.1733 219.593 31.5991C219.951 30.0198 220.249 28.4119 220.547 26.804C220.636 26.402 220.815 26.2584 221.262 26.2584C222.096 26.2871 222.96 26.2584 223.883 26.2584C223.824 26.5743 223.824 26.8614 223.764 27.1485C223.407 28.8713 223.049 30.5941 222.662 32.3169C222.543 32.7763 222.394 33.2644 222.185 33.6951C220.993 36.5377 217.746 37.0833 215.482 36.2219C214.201 35.7337 213.665 34.6139 213.695 33.3506C213.695 32.2595 213.963 31.1971 214.142 30.106C214.35 28.9287 214.618 27.7515 214.857 26.5743C214.857 26.4307 215.065 26.2584 215.184 26.2297C216.197 26.2297 217.18 26.2297 218.253 26.2297V26.3158Z" fill="white"/>
<path d="M107.936 28.8139C107.608 28.8139 107.31 28.7852 107.012 28.7565C107.132 28.01 107.251 27.3209 107.4 26.603C107.4 26.5169 107.638 26.402 107.787 26.3733C108.264 26.3159 108.532 26.1723 108.591 25.6268C108.681 24.8228 108.889 24.0188 109.038 23.2149C109.098 22.9277 109.217 22.8129 109.515 22.8129C110.468 22.8129 111.422 22.8129 112.464 22.8129C112.226 23.9901 112.017 25.0812 111.779 26.2585H113.954C113.835 26.804 113.745 27.2921 113.656 27.7803C113.537 28.412 113.13 28.7278 112.434 28.7278C111.273 28.7278 111.273 28.7278 111.034 29.7902C110.826 30.709 110.647 31.6278 110.528 32.5466C110.468 32.8625 110.528 33.4655 110.677 33.4942C111.094 33.609 111.57 33.5516 112.017 33.4942C112.137 33.4942 112.256 33.3793 112.434 33.2645C112.494 33.7526 112.583 34.212 112.643 34.6714C112.643 34.7575 112.643 34.8437 112.643 34.9298C112.703 35.8199 112.732 35.8774 111.868 36.1645C110.826 36.509 109.753 36.7675 108.651 36.3942C107.608 36.0496 107.132 35.3031 107.042 34.3269C106.923 33.0348 107.281 31.7714 107.549 30.508C107.668 29.9337 107.787 29.3595 107.906 28.7565L107.936 28.8139Z" fill="white"/>
<path d="M223.883 36.2794C224.062 35.3319 224.241 34.3556 224.449 33.4081C225.313 29.1298 226.177 24.8229 227.041 20.5446C227.041 20.401 227.071 20.2575 227.13 20.1139C227.19 19.9991 227.309 19.8555 227.399 19.8555C228.411 19.8555 229.395 19.8555 230.497 19.8555C230.378 20.4872 230.288 21.0327 230.169 21.607C229.365 25.5694 228.59 29.5318 227.786 33.4655C227.607 34.3269 227.428 35.217 227.22 36.0784C227.22 36.1933 227.011 36.3655 226.922 36.3655C225.998 36.3655 225.075 36.3655 224.122 36.3655C224.062 36.3655 224.002 36.3368 223.883 36.3081V36.2794Z" fill="white"/>
<path d="M82.9114 26.3159C82.673 27.407 82.4645 28.4407 82.2262 29.4743C81.7793 31.5704 81.3622 33.6377 80.9451 35.7338C80.8558 36.1645 80.7068 36.3942 80.1706 36.3368C79.3364 36.2793 78.4725 36.3368 77.5787 36.3368C77.5787 36.1358 77.5787 35.9635 77.6383 35.7912C78.2341 32.7763 78.8598 29.7615 79.4556 26.7466C79.5152 26.4882 79.6045 26.3159 79.9322 26.3159C80.9153 26.3159 81.8687 26.3159 82.9114 26.3159Z" fill="white"/>
<path d="M82.3453 21.1475C83.4178 21.1475 84.1626 22.0664 83.8945 23.0426C83.537 24.2485 82.4049 24.9089 80.9749 24.5644C80.0812 24.3347 79.7535 23.1287 80.2897 22.2386C80.7664 21.4921 81.4218 21.0901 82.3453 21.1475Z" fill="white"/>
<path d="M154.44 24.9089C155.244 23.5594 155.989 22.296 156.734 21.0327C156.793 20.9178 156.942 20.8029 157.032 20.8029C157.866 20.8029 158.7 20.8029 159.534 20.8317C159.564 20.8317 159.624 20.8604 159.653 20.8891C158.73 22.1525 157.806 23.3871 156.853 24.6505C156.764 24.7654 156.615 24.8802 156.496 24.9089C155.84 24.9089 155.185 24.9089 154.41 24.9089H154.44Z" fill="white"/>
</g>
<path d="M647.227 16.8197H267.227H45.7266L37.2266 30.5844L22.7266 40.2707L17.7266 51.4864V65.3197L28.7266 68.8197L623.727 68.8197L658.727 40.2707V27.5256L655.727 20.8982L647.227 16.8197Z" fill="url(#paint6_linear_23_241)"/>
<mask id="mask1_23_241" style="mask-type:alpha" maskUnits="userSpaceOnUse" x="17" y="16" width="642" height="53">
<path d="M647.227 16.8197H267.227H45.7266L37.2266 30.5844L22.7266 40.2707L17.7266 51.4864V64.8197L28.7266 68.8197L623.727 68.8197L658.727 40.2707V27.5256L655.727 20.8982L647.227 16.8197Z" fill="url(#paint7_linear_23_241)"/>
</mask>
<g mask="url(#mask1_23_241)">
<path d="M647.227 16.8197H267.227H45.7266L37.2266 30.5844L22.7266 40.2707L17.7266 51.4864L19.2266 66.3197L28.7266 68.8197L623.727 68.8197L658.727 40.2707V27.5256L655.727 20.8982L647.227 16.8197Z" fill="url(#paint8_linear_23_241)" fill-opacity="0.75"/>
</g>
<path d="M654.797 32.4892C654.797 23.1038 644.555 18.3606 639.435 16.8468H645.877C651.494 16.5105 662.727 19.168 662.727 32.4892C662.727 45.8104 644.225 62.26 634.974 68.8197H606.727C622.75 60.4099 654.797 43.5902 654.797 32.4892Z" fill="url(#paint9_linear_23_241)"/>
<path d="M4.69458 51.499C4.69458 40.0178 18.334 27.7448 25.1537 23.2909L40.6227 16.8575H275.653C270.663 16.8575 260.184 27.2499 253.697 33.6833C248.507 38.8301 237.23 42.0963 230.244 42.0963H40.498C34.3329 42.0963 27.906 43.189 23.6234 47.6238C21.1439 50.1914 19.1656 53.3954 19.1656 56.9426C19.1656 64.0689 25.7265 67.8197 28.7265 68.8197C20.7425 67.665 4.69458 62.9801 4.69458 51.499Z" fill="url(#paint10_linear_23_241)"/>
<path d="M7.68861 53.4785C4.98847 44.7754 16.6707 33.5184 20.6627 30.2192L22.6587 25.2704H28.6467L26.6507 30.2192C21.4944 36.1577 10.1836 42.5983 10.1836 52.4887C10.1836 56.0519 12.1796 57.9324 16.6706 62.8812C12.6786 60.4068 9.68457 59.9119 7.68861 53.4785Z" fill="white"/>
<path d="M47.2917 12.2702L32.244 24.2549C31.0603 25.1976 30.5164 26.727 30.8391 28.2054L34.9193 46.901L22.842 31.9866C21.887 30.8072 20.3464 30.2634 18.8627 30.5818L-5.9733e-05 34.6308L15.0477 22.6461C16.2313 21.7034 16.7753 20.174 16.4526 18.6956L12.3724 -4.69658e-06L24.4497 14.9144C25.4047 16.0938 26.9453 16.6376 28.429 16.3192L47.2917 12.2702Z" fill="url(#paint11_linear_23_241)"/>
<path fill-rule="evenodd" clip-rule="evenodd" d="M28.6271 23.3436L38.9605 16.2095L26.5672 19.7655C25.776 19.2013 24.8116 18.861 23.7682 18.8383L16.3445 8.26248L19.9173 20.5091C19.1875 21.3275 18.7268 22.3873 18.6722 23.5523L8.3313 30.6916L20.1451 27.3018C21.0468 28.1876 22.2873 28.7347 23.6568 28.7347C23.768 28.7347 23.8784 28.7311 23.9878 28.724L30.9473 38.6386L27.526 26.9112C28.2266 26.059 28.6468 24.9711 28.6468 23.7859C28.6468 23.6368 28.6401 23.4893 28.6271 23.3436Z" fill="#FFFFFB"/>
<path d="M165.165 36.3081C165.344 35.4467 165.492 34.6427 165.641 33.8387C165.88 32.6041 166.118 31.3694 166.356 30.1348C166.356 30.0199 166.386 29.9051 166.386 29.7902C166.386 29.4456 166.446 29.0149 166.029 28.9001C165.671 28.814 165.195 28.814 164.837 28.9288C164.301 29.1298 164.033 29.6179 163.914 30.1348C163.645 31.312 163.407 32.5179 163.169 33.6952C163.02 34.4417 162.841 35.1595 162.722 35.9061C162.662 36.1932 162.543 36.3368 162.215 36.3368C161.322 36.3368 160.428 36.3368 159.445 36.3368C159.534 35.82 159.594 35.3318 159.683 34.8437C160.219 32.116 160.785 29.3882 161.322 26.6605C161.322 26.5169 161.56 26.3159 161.679 26.3159C162.424 26.2872 163.169 26.3159 163.914 26.3159C164.003 26.3159 164.152 26.5169 164.182 26.6605C164.182 26.804 164.152 26.9763 164.182 27.206C164.331 27.0912 164.48 27.005 164.599 26.8902C165.671 25.9139 166.982 25.7704 168.323 26.0288C168.74 26.1149 169.097 26.5743 169.425 26.8902C169.574 27.0337 169.663 27.2634 169.753 27.407C169.961 27.206 170.199 27.0337 170.378 26.8615C171.51 25.8852 172.851 25.7417 174.251 26.0288C174.996 26.1723 175.562 26.7753 175.592 27.5219C175.621 28.4407 175.592 29.3882 175.443 30.2783C175.115 32.1447 174.728 34.011 174.311 35.9061C174.311 36.0497 174.132 36.2794 174.013 36.2794C173 36.2794 172.017 36.2794 170.944 36.2794C171.123 35.3893 171.302 34.5279 171.451 33.6952C171.689 32.5467 171.927 31.3981 172.136 30.2496C172.166 30.0486 172.196 29.8763 172.196 29.6753C172.196 29.3308 172.196 28.9575 171.808 28.8427C171.451 28.7565 171.004 28.7278 170.676 28.8714C170.08 29.1298 169.782 29.6753 169.663 30.2783C169.276 32.0585 168.918 33.8387 168.561 35.619C168.412 36.2794 168.442 36.2794 167.727 36.2794C167.042 36.2794 166.356 36.2794 165.671 36.2794C165.522 36.2794 165.373 36.2794 165.135 36.2794L165.165 36.3081Z" fill="white"/>
<path d="M53.5076 36.3368C52.3755 36.3368 51.3329 36.3368 50.2604 36.3368C50.1412 36.3368 49.9625 36.1071 49.9327 35.9635C49.6645 34.6714 49.4262 33.3506 49.1581 32.0298C49.0985 31.6566 49.0091 31.312 48.9496 30.9387C48.89 30.6803 48.8304 30.4506 48.5027 30.4793C48.2048 30.4793 47.9664 30.5655 47.9069 30.91C47.6983 32.116 47.4302 33.2932 47.2217 34.4704C47.1323 34.9873 47.0429 35.5328 46.9238 36.0497C46.9238 36.1645 46.745 36.3081 46.6556 36.3081C45.6725 36.3081 44.7192 36.3081 43.6467 36.3081C44.6 31.3981 45.5832 26.4882 46.5663 21.5496C46.6854 21.5496 46.8642 21.4921 47.0429 21.4921C48.5027 21.4921 49.9922 21.4921 51.452 21.4921C53.7161 21.5208 55.0567 22.7268 55.1461 24.8803C55.2355 27.1486 54.4013 28.7853 52.2862 29.7615C52.018 29.8764 51.9883 30.0486 52.0478 30.2783C52.5245 32.1734 53.0012 34.0972 53.4778 36.021C53.4778 36.1071 53.4778 36.1932 53.4778 36.3368H53.5076ZM48.5027 28.0387C49.3964 28.1536 50.2008 28.1249 50.886 27.5793C51.5116 27.0912 51.8393 26.0001 51.601 25.1961C51.3626 24.3921 50.6477 24.4209 50.022 24.3921C49.1283 24.306 49.2773 24.2486 49.0985 25.0238C49.0687 25.1961 49.0091 25.3684 48.9793 25.5407C48.8006 26.3734 48.6516 27.1773 48.4729 28.0387H48.5027Z" fill="white"/>
<path d="M211.877 36.3368C210.775 36.3368 209.732 36.3368 208.69 36.3368C208.571 36.3368 208.362 36.1358 208.332 35.9923C208.034 34.614 207.796 33.2071 207.528 31.8001C207.468 31.4843 207.409 31.1972 207.349 30.8813C207.319 30.6229 207.17 30.4506 206.902 30.4793C206.634 30.4793 206.396 30.5368 206.336 30.8813C206.038 32.4893 205.681 34.0972 205.413 35.7051C205.323 36.1645 205.204 36.3655 204.668 36.3368C203.804 36.2794 202.94 36.3368 202.016 36.3368C202.225 35.2457 202.434 34.212 202.642 33.2071C203.387 29.4457 204.161 25.6555 204.906 21.8941C204.966 21.607 205.055 21.5208 205.353 21.5208C207.021 21.5208 208.66 21.4347 210.328 21.5496C212.414 21.6931 213.486 22.9278 213.575 24.8803C213.665 27.0338 212.89 28.7853 210.716 29.7902C210.418 29.9338 210.418 30.1061 210.507 30.3645C210.984 32.2595 211.46 34.1546 211.907 36.0497C211.907 36.1358 211.907 36.222 211.907 36.3655L211.877 36.3368ZM206.902 28.0674C207.17 28.0674 207.409 28.0674 207.647 28.0674C209.434 28.1249 210.328 26.8615 210.03 25.1961C210.001 24.9664 209.703 24.6506 209.464 24.5644C208.988 24.4209 208.451 24.3922 207.915 24.3347C207.826 24.3347 207.677 24.4496 207.647 24.5644C207.409 25.713 207.17 26.8615 206.932 28.0674H206.902Z" fill="white"/>
<path d="M74.1528 27.2061C74.272 26.6318 74.3911 26.115 74.5103 25.5981C74.8678 23.7892 75.2253 21.9803 75.6126 20.1713C75.6126 20.0565 75.7913 19.8555 75.9105 19.8555C76.8638 19.8555 77.8171 19.8555 78.83 19.8555C78.6513 20.7456 78.4725 21.5783 78.3236 22.3823C77.4298 26.8902 76.5063 31.3695 75.6126 35.8774C75.553 36.2507 75.404 36.3655 75.0167 36.3368C74.1826 36.3081 73.3484 36.3368 72.4845 36.3368C72.5143 35.9635 72.5441 35.619 72.6037 35.2457C72.127 35.5616 71.7397 35.9061 71.2928 36.1358C70.4587 36.5952 69.565 36.7962 68.6116 36.5665C67.4498 36.3081 66.7348 35.5616 66.4965 34.4992C65.9304 32.1447 66.3177 29.9051 67.8371 27.9239C68.8202 26.6605 70.1012 25.914 71.8291 25.9427C72.6037 25.9427 73.2293 26.2011 73.7655 26.7466C73.8847 26.8615 73.9741 26.9763 74.1528 27.1773V27.2061ZM69.8629 32.1734C69.8629 32.6328 69.9225 32.9774 70.0714 33.3219C70.131 33.4368 70.3097 33.6091 70.4289 33.6091C71.0247 33.6952 71.5908 33.7526 72.0674 33.2645C73.0803 32.2883 73.2591 31.0536 73.1101 29.7902C73.0207 28.9576 72.2462 28.5843 71.4716 28.9288C70.9354 29.1873 70.5183 29.5605 70.3097 30.0774C70.0416 30.7665 69.8331 31.4556 69.8331 32.1447L69.8629 32.1734Z" fill="white"/>
<path d="M145.175 19.8268C144.46 23.3298 143.775 26.7179 143.09 30.1348C143.149 30.1348 143.179 30.1635 143.238 30.1922C143.447 29.9338 143.685 29.6753 143.894 29.4169C144.609 28.5555 145.324 27.6654 146.039 26.7753C146.307 26.4308 146.635 26.2872 147.052 26.2872C148.065 26.2872 149.078 26.2872 150.09 26.2872C150.09 26.3446 150.09 26.4021 150.12 26.4595C149.971 26.6318 149.793 26.804 149.644 26.9763C148.541 28.1536 147.439 29.3021 146.367 30.4793C146.247 30.5942 146.247 30.8526 146.307 31.0249C146.873 32.6615 147.469 34.2694 148.065 35.8774C148.094 35.9922 148.124 36.1358 148.184 36.2794C148.065 36.2794 147.975 36.3368 147.886 36.3368C146.873 36.3368 145.86 36.3368 144.877 36.3368C144.549 36.3368 144.43 36.2219 144.341 35.9348C143.953 34.7001 143.566 33.4368 143.179 32.2021C143.119 31.9724 143.03 31.7714 142.851 31.5704C142.553 33.0061 142.255 34.413 141.957 35.8487C141.868 36.2219 141.749 36.3655 141.302 36.3368C140.557 36.2794 139.783 36.3368 139.038 36.3368C138.889 36.3368 138.74 36.3368 138.531 36.3368C138.74 35.3605 138.919 34.4417 139.098 33.5229C139.932 29.4456 140.766 25.3684 141.6 21.3198C141.689 20.9178 141.749 20.5159 141.868 20.1139C141.868 19.999 142.077 19.8842 142.166 19.8842C143.149 19.8842 144.132 19.8842 145.235 19.8842L145.175 19.8268Z" fill="white"/>
<path d="M116.992 36.3368C117.112 35.6476 117.231 35.016 117.35 34.413C118.184 30.3357 119.018 26.2297 119.823 22.1525C119.823 22.0376 119.823 21.8941 119.882 21.8079C119.942 21.6931 120.061 21.5208 120.18 21.5208C121.908 21.5208 123.606 21.4634 125.334 21.5495C127.241 21.6644 128.551 23.0713 128.611 24.9089C128.611 25.9139 128.551 26.8901 128.134 27.809C127.27 29.704 125.572 30.508 123.576 30.8238C122.981 30.91 122.385 30.8813 121.759 30.8526C121.431 30.8526 121.312 30.9674 121.253 31.2545C120.955 32.805 120.627 34.3556 120.299 35.9061C120.24 36.2506 120.061 36.3655 119.703 36.3368C118.84 36.308 117.946 36.3368 116.963 36.3368H116.992ZM121.908 28.0961C122.266 28.0961 122.563 28.0961 122.832 28.0961C123.934 28.0961 124.947 27.2921 125.036 26.4307C125.245 24.7367 124.887 24.5644 123.487 24.3921C122.623 24.2773 122.593 24.3347 122.444 25.1386C122.444 25.2248 122.414 25.3109 122.385 25.3971C122.206 26.2872 122.057 27.1486 121.878 28.0961H121.908Z" fill="white"/>
<path d="M62.8917 27.1773C62.8917 27.0337 62.8321 26.8614 62.8917 26.7466C62.9811 26.5743 63.13 26.3446 63.279 26.3446C64.1429 26.3159 65.0069 26.3446 65.9304 26.3446C65.8112 27.005 65.6921 27.608 65.5729 28.2109C65.0367 30.7951 64.5302 33.408 63.994 35.9922C63.994 36.1358 63.8152 36.3367 63.6961 36.3367C62.7725 36.3367 61.849 36.3367 60.8361 36.3367C60.8361 36.0209 60.8957 35.7051 60.8957 35.3892C60.4786 35.6763 60.1211 35.9635 59.704 36.1645C58.8401 36.5952 57.9166 36.8249 56.9335 36.5665C55.712 36.2506 55.0864 35.3892 54.8481 34.2981C54.2821 31.7139 54.8779 29.3882 56.7845 27.4357C57.8868 26.2872 59.3168 25.8565 60.9553 26.0287C61.6703 26.1149 62.1171 26.603 62.5938 27.0337C62.6832 27.0911 62.713 27.206 62.7725 27.2634C62.8023 27.2634 62.8619 27.2347 62.8917 27.206V27.1773ZM61.5809 30.3644C61.5809 30.3644 61.5809 30.1347 61.5809 30.0486C61.4915 28.9575 60.7169 28.5555 59.7338 29.0723C59.4955 29.2159 59.2572 29.3882 59.0784 29.6179C58.3634 30.4793 58.1251 31.4842 58.2145 32.5753C58.2443 33.0347 58.3634 33.4942 58.8699 33.6377C59.4359 33.7813 59.9722 33.7813 60.4786 33.3506C61.4021 32.5466 61.5809 31.4842 61.6405 30.3931L61.5809 30.3644Z" fill="white"/>
<path d="M89.7038 36.3368C89.7038 36.0209 89.7633 35.7625 89.7633 35.5328C89.7633 35.4754 89.7633 35.4179 89.7038 35.3031C89.5548 35.4467 89.4356 35.5615 89.2867 35.6476C88.1248 36.4803 86.9034 36.9684 85.4436 36.4229C84.4307 36.0496 83.9541 35.2744 83.6562 34.3268C83.0603 32.4318 83.6859 28.6416 86.0394 26.9476C87.2013 26.1149 88.4525 25.7416 89.8527 26.0288C90.2698 26.1149 90.6571 26.4595 91.0444 26.7466C91.1933 26.8614 91.2827 27.0337 91.4316 27.2347C91.4912 27.1199 91.5806 27.0337 91.5806 26.9476C91.5806 26.4307 91.9083 26.2872 92.385 26.2872C93.1297 26.2872 93.9043 26.2872 94.7385 26.2872C94.6193 26.8902 94.5001 27.4357 94.381 28.01C93.8447 30.5941 93.3085 33.1783 92.802 35.7338C92.7127 36.1932 92.5339 36.3368 92.0573 36.308C91.2827 36.2793 90.4783 36.308 89.674 36.308L89.7038 36.3368ZM86.9928 32.1446C86.9928 32.3169 86.963 32.5179 86.9928 32.6615C87.0821 33.006 87.1119 33.4367 87.5588 33.5803C88.1546 33.7813 88.7504 33.7813 89.2569 33.3219C90.1208 32.6041 90.6869 30.6229 90.3294 29.5892C90.1208 28.9575 89.4654 28.6416 88.8696 28.9288C88.4525 29.1298 88.0652 29.3882 87.7971 29.7327C87.2311 30.4219 87.0226 31.2545 87.0226 32.1446H86.9928Z" fill="white"/>
<path d="M183.337 25.9427C185.453 25.7704 187.032 27.4932 187.091 29.7615C187.151 32.0299 186.466 34.0398 184.499 35.4467C182.95 36.5665 181.192 36.9398 179.286 36.423C177.915 36.0497 177.051 35.1596 176.813 33.8101C176.485 32.116 176.724 30.4506 177.647 28.9289C178.839 27.0338 180.567 26.0288 183.337 25.9427ZM181.431 33.6952C181.818 33.6952 182.146 33.5804 182.444 33.2645C183.397 32.317 183.725 31.1685 183.546 29.8764C183.397 28.9289 182.593 28.613 181.669 29.015C180.418 29.5605 179.852 31.4843 180.06 32.6616C180.209 33.4368 180.507 33.6665 181.401 33.6665L181.431 33.6952Z" fill="white"/>
<path d="M133.884 25.9713C136.476 25.799 138.025 27.4644 138.114 29.7327C138.174 31.8001 137.638 33.6664 135.999 35.0734C134.331 36.5377 132.335 36.9972 130.13 36.3368C128.82 35.9348 128.134 34.9872 127.866 33.7526C127.3 31.2545 128.432 28.4119 130.577 26.9763C131.59 26.2872 132.722 25.9139 133.884 25.9426V25.9713ZM131.233 32.0585C131.233 32.2882 131.233 32.5466 131.233 32.7189C131.292 33.0347 131.471 33.4367 131.739 33.5516C132.335 33.81 132.99 33.7813 133.497 33.3219C134.391 32.4892 134.748 31.4555 134.748 30.2783C134.748 29.704 134.599 29.2446 134.003 28.9575C133.437 28.6704 132.931 28.9001 132.514 29.1872C131.471 29.8763 131.233 30.9387 131.233 32.0585Z" fill="white"/>
<path d="M100.697 36.3368C100.875 35.3893 101.054 34.5279 101.233 33.6378C101.441 32.5467 101.68 31.4269 101.888 30.3358C101.918 30.1635 101.948 29.9912 101.948 29.8189C101.978 28.9288 101.292 28.4981 100.429 28.9288C99.8625 29.2159 99.5348 29.7041 99.4157 30.2783C99.0582 31.915 98.7305 33.5803 98.4028 35.217C98.1644 36.3368 98.1346 36.3368 96.943 36.3368C96.3174 36.3368 95.662 36.3368 95.0364 36.3368C95.0364 36.3368 94.9768 36.3368 94.8576 36.2507C95.513 32.9774 96.1684 29.6466 96.8238 26.3446C97.7176 26.3446 98.5815 26.3446 99.4454 26.3446C99.6838 26.3446 99.8029 26.4308 99.7434 26.6892C99.7136 26.8615 99.6838 27.0625 99.654 27.3496C99.8625 27.1773 99.9817 27.0625 100.101 26.9763C101.203 25.9714 102.544 25.7991 103.944 26.0862C104.689 26.2298 105.314 27.0625 105.374 27.809C105.463 28.9862 105.225 30.1348 104.987 31.2833C104.659 32.8051 104.361 34.3269 104.093 35.8487C104.033 36.1932 103.884 36.3655 103.497 36.3368C102.603 36.3368 101.71 36.3368 100.697 36.3368Z" fill="white"/>
<path d="M187.717 36.3368C187.836 35.7051 187.925 35.1021 188.044 34.5279C188.551 31.9437 189.087 29.3308 189.594 26.7466C189.653 26.4308 189.772 26.3159 190.1 26.3159C190.726 26.3159 191.351 26.3159 191.947 26.3159C192.513 26.3159 192.513 26.3159 192.424 26.8902C192.424 26.9763 192.424 27.0625 192.424 27.2347C192.602 27.1199 192.751 27.0625 192.871 26.9476C193.943 26.0001 195.254 25.7991 196.624 26.0288C197.339 26.1437 198.084 26.8615 198.114 27.6367C198.144 28.5268 198.114 29.4457 197.935 30.3071C197.607 32.1447 197.19 33.9823 196.833 35.82C196.773 36.1645 196.654 36.3368 196.207 36.3081C195.313 36.2507 194.42 36.3081 193.466 36.3081C193.526 35.8774 193.586 35.5328 193.645 35.1596C193.973 33.4942 194.301 31.8576 194.628 30.1922C194.658 30.0199 194.688 29.8476 194.688 29.6754C194.688 28.8714 194.152 28.5268 193.377 28.814C192.692 29.0437 192.334 29.5605 192.185 30.1922C191.947 31.2546 191.739 32.3457 191.53 33.4081C191.351 34.2695 191.173 35.1309 190.994 35.9635C190.994 36.0784 190.815 36.2794 190.696 36.2794C189.713 36.2794 188.759 36.2794 187.717 36.2794V36.3368Z" fill="white"/>
<path d="M152.504 32.2308C152.533 33.4368 153.189 33.9823 154.321 33.8675C155.095 33.81 155.781 33.5229 156.406 33.1209C156.525 33.0635 156.615 33.0061 156.764 32.9199C157.091 33.6378 157.36 34.3269 157.657 35.016C157.777 35.3031 157.598 35.4754 157.36 35.5902C156.853 35.8199 156.376 36.1071 155.84 36.2219C154.5 36.5378 153.159 36.8536 151.729 36.4516C150.329 36.0209 149.435 35.1595 149.197 33.7813C148.839 31.5417 149.316 29.4744 150.954 27.7803C152.384 26.2872 154.202 25.7417 156.287 26.0575C157.479 26.2298 158.611 27.407 158.641 28.6991C158.67 29.7615 158.521 30.8526 158.462 31.915C158.462 32.1447 158.283 32.2021 158.045 32.2021C156.436 32.2021 154.827 32.2308 153.219 32.2595C152.98 32.2595 152.742 32.2595 152.444 32.2595L152.504 32.2308ZM152.861 30.4793C153.755 30.4793 154.619 30.4793 155.483 30.4793C155.572 30.4793 155.721 30.307 155.721 30.2209C155.721 29.8763 155.661 29.5605 155.572 29.2159C155.483 28.9001 155.244 28.7565 154.887 28.7565C154.023 28.7565 153.129 29.4744 152.861 30.4793Z" fill="white"/>
<path d="M232.97 32.2882C233.208 33.4367 233.595 33.9248 234.429 33.8961C235.263 33.8961 236.068 33.6951 236.723 33.207C236.842 33.1209 236.962 33.0347 237.14 32.8912C237.468 33.6377 237.796 34.3268 238.064 35.0446C238.123 35.1595 237.974 35.4753 237.826 35.5328C235.978 36.4803 234.012 36.9684 231.957 36.3655C230.646 35.9922 229.931 35.0446 229.693 33.7813C229.216 31.5417 230.139 28.3258 232.701 26.7753C233.982 26 235.353 25.8277 236.813 26.0287C237.945 26.201 238.928 27.2634 239.136 28.4693C239.345 29.6179 239.226 30.7377 238.928 31.8575C238.898 32.0011 238.63 32.1446 238.481 32.1733C237.2 32.2021 235.949 32.2308 234.668 32.2308C234.251 32.2308 233.833 32.2308 233.416 32.2308C233.267 32.2308 233.119 32.2308 232.97 32.2595V32.2882ZM233.267 30.508C234.221 30.508 235.085 30.508 235.978 30.508C236.068 30.508 236.247 30.3931 236.247 30.3357C236.217 29.9337 236.217 29.5317 236.038 29.1872C235.829 28.7278 234.966 28.6703 234.459 29.0149C233.923 29.3882 233.595 29.905 233.297 30.5367L233.267 30.508Z" fill="white"/>
<path d="M218.253 26.3158C218.104 27.1198 217.925 27.8664 217.806 28.6129C217.568 29.9624 217.299 31.2832 217.061 32.6327C217.001 33.006 216.942 33.4654 217.448 33.6951C218.014 33.9535 218.759 33.7813 219.027 33.2357C219.295 32.7189 219.474 32.1733 219.593 31.5991C219.951 30.0198 220.249 28.4119 220.547 26.804C220.636 26.402 220.815 26.2584 221.262 26.2584C222.096 26.2871 222.96 26.2584 223.883 26.2584C223.824 26.5743 223.824 26.8614 223.764 27.1485C223.407 28.8713 223.049 30.5941 222.662 32.3169C222.543 32.7763 222.394 33.2644 222.185 33.6951C220.993 36.5377 217.746 37.0833 215.482 36.2219C214.201 35.7337 213.665 34.6139 213.695 33.3506C213.695 32.2595 213.963 31.1971 214.142 30.106C214.35 28.9287 214.618 27.7515 214.857 26.5743C214.857 26.4307 215.065 26.2584 215.184 26.2297C216.197 26.2297 217.18 26.2297 218.253 26.2297V26.3158Z" fill="white"/>
<path d="M107.936 28.8139C107.608 28.8139 107.31 28.7852 107.012 28.7565C107.132 28.01 107.251 27.3209 107.4 26.603C107.4 26.5169 107.638 26.402 107.787 26.3733C108.264 26.3159 108.532 26.1723 108.591 25.6268C108.681 24.8228 108.889 24.0188 109.038 23.2149C109.098 22.9277 109.217 22.8129 109.515 22.8129C110.468 22.8129 111.422 22.8129 112.464 22.8129C112.226 23.9901 112.017 25.0812 111.779 26.2585H113.954C113.835 26.804 113.745 27.2921 113.656 27.7803C113.537 28.412 113.13 28.7278 112.434 28.7278C111.273 28.7278 111.273 28.7278 111.034 29.7902C110.826 30.709 110.647 31.6278 110.528 32.5466C110.468 32.8625 110.528 33.4655 110.677 33.4942C111.094 33.609 111.57 33.5516 112.017 33.4942C112.137 33.4942 112.256 33.3793 112.434 33.2645C112.494 33.7526 112.583 34.212 112.643 34.6714C112.643 34.7575 112.643 34.8437 112.643 34.9298C112.703 35.8199 112.732 35.8774 111.868 36.1645C110.826 36.509 109.753 36.7675 108.651 36.3942C107.608 36.0496 107.132 35.3031 107.042 34.3269C106.923 33.0348 107.281 31.7714 107.549 30.508C107.668 29.9337 107.787 29.3595 107.906 28.7565L107.936 28.8139Z" fill="white"/>
<path d="M223.883 36.2794C224.062 35.3319 224.241 34.3556 224.449 33.4081C225.313 29.1298 226.177 24.8229 227.041 20.5446C227.041 20.401 227.071 20.2575 227.13 20.1139C227.19 19.9991 227.309 19.8555 227.399 19.8555C228.411 19.8555 229.395 19.8555 230.497 19.8555C230.378 20.4872 230.288 21.0327 230.169 21.607C229.365 25.5694 228.59 29.5318 227.786 33.4655C227.607 34.3269 227.428 35.217 227.22 36.0784C227.22 36.1933 227.011 36.3655 226.922 36.3655C225.998 36.3655 225.075 36.3655 224.122 36.3655C224.062 36.3655 224.002 36.3368 223.883 36.3081V36.2794Z" fill="white"/>
<path d="M82.9114 26.3159C82.673 27.407 82.4645 28.4407 82.2262 29.4743C81.7793 31.5704 81.3622 33.6377 80.9451 35.7338C80.8558 36.1645 80.7068 36.3942 80.1706 36.3368C79.3364 36.2793 78.4725 36.3368 77.5787 36.3368C77.5787 36.1358 77.5787 35.9635 77.6383 35.7912C78.2341 32.7763 78.8598 29.7615 79.4556 26.7466C79.5152 26.4882 79.6045 26.3159 79.9322 26.3159C80.9153 26.3159 81.8687 26.3159 82.9114 26.3159Z" fill="white"/>
<path d="M82.3453 21.1475C83.4178 21.1475 84.1626 22.0664 83.8945 23.0426C83.537 24.2485 82.4049 24.9089 80.9749 24.5644C80.0812 24.3347 79.7535 23.1287 80.2897 22.2386C80.7664 21.4921 81.4218 21.0901 82.3453 21.1475Z" fill="white"/>
<path d="M154.44 24.9089C155.244 23.5594 155.989 22.296 156.734 21.0327C156.793 20.9178 156.942 20.8029 157.032 20.8029C157.866 20.8029 158.7 20.8029 159.534 20.8317C159.564 20.8317 159.624 20.8604 159.653 20.8891C158.73 22.1525 157.806 23.3871 156.853 24.6505C156.764 24.7654 156.615 24.8802 156.496 24.9089C155.84 24.9089 155.185 24.9089 154.41 24.9089H154.44Z" fill="white"/>
<text x="296" y="62" text-anchor="middle" fill="#201E1F" font-family="sans-serif" font-size="13">You can&#x27;t have more than 1 Radiant Pok&#xe9;mon in your deck.</text>
<defs>
<filter id="filter0_d_23_241" x="0" y="0" width="666.727" height="72.8197" filterUnits="userSpaceOnUse" color-interpolation-filters="sRGB">
<feFlood flood-opacity="0" result="BackgroundImageFix"/>
<feColorMatrix in="SourceAlpha" type="matrix" values="0 0 0 0 0 0 0 0 0 0 0 0 0 0 0 0 0 0 127 0" result="hardAlpha"/>
<feOffset dx="2" dy="2"/>
<feGaussianBlur stdDeviation="1"/>
<feComposite in2="hardAlpha" operator="out"/>
<feColorMatrix type="matrix" values="0 0 0 0 0 0 0 0 0 0 0 0 0 0 0 0 0 0 0.25 0"/>
<feBlend mode="normal" in2="BackgroundImageFix" result="effect1_dropShadow_23_241"/>
<feBlend mode="normal" in="SourceGraphic" in2="effect1_dropShadow_23_241" result="shape"/>
</filter>
<linearGradient id="paint0_linear_23_241" x1="338.227" y1="16.8197" x2="338.227" y2="68.8197" gradientUnits="userSpaceOnUse">
<stop stop-color="#D9DADA"/>
<stop offset="0.177083" stop-color="#EDEDED"/>
<stop offset="0.505208" stop-color="white"/>
<stop offset="0.817708" stop-color="#F0F1F1"/>
<stop offset="1" stop-color="#DFE0E1"/>
</linearGradient>
<linearGradient id="paint1_linear_23_241" x1="349.727" y1="68.8197" x2="349.727" y2="16.8197" gradientUnits="userSpaceOnUse">
<stop/>
<stop offset="0.104167" stop-opacity="0"/>
<stop offset="0.921875" stop-opacity="0"/>
<stop offset="0.960924"/>
</linearGradient>
<linearGradient id="paint2_linear_23_241" x1="17.7266" y1="45.3686" x2="658.727" y2="42.4263" gradientUnits="userSpaceOnUse">
<stop stop-color="#E05B83"/>
<stop offset="0.310484" stop-color="#F3B44D"/>
<stop offset="0.487329" stop-color="#FBE554"/>
<stop offset="0.678694" stop-color="#9AC163"/>
<stop offset="0.813029" stop-color="#06B0E1"/>
<stop offset="0.960924" stop-color="#4762B1"/>
</linearGradient>
<linearGradient id="paint3_linear_23_241" x1="634.727" y1="16.8197" x2="634.727" y2="68.8197" gradientUnits="userSpaceOnUse">
<stop stop-color="#646464"/>
<stop offset="0.14188" stop-color="#A9A9AE"/>
<stop offset="0.468293" stop-color="#737371"/>
<stop offset="0.503018" stop-color="#E4E4E6"/>
<stop offset="0.725257" stop-color="#78787A"/>
<stop offset="0.884991" stop-color="#C1C1C1"/>
<stop offset="1" stop-color="#828282"/>
</linearGradient>
<linearGradient id="paint4_linear_23_241" x1="140.211" y1="16.8575" x2="140.211" y2="68.8197" gradientUnits="userSpaceOnUse">
<stop stop-color="#808080"/>
<stop offset="0.128724" stop-color="#A3A7AA"/>
<stop offset="0.477298" stop-color="#3D3940"/>
<stop offset="0.517364" stop-color="#F1F1F1"/>
<stop offset="0.621536" stop-color="#A2A2A2"/>
<stop offset="0.74574" stop-color="#747577"/>
<stop offset="0.881964" stop-color="#B0B4B7"/>
<stop offset="1" stop-color="#888E8C"/>
</linearGradient>
<linearGradient id="paint5_linear_23_241" x1="13.1776" y1="1.02135" x2="34.8387" y2="46.6901" gradientUnits="userSpaceOnUse">
<stop stop-color="#BBB9C4"/>
<stop offset="0.501637" stop-color="#888F95"/>
</linearGradient>
<linearGradient id="paint6_linear_23_241" x1="338.227" y1="16.8197" x2="338.227" y2="68.8197" gradientUnits="userSpaceOnUse">
<stop stop-color="#D9DADA"/>
<stop offset="0.177083" stop-color="#EDEDED"/>
<stop offset="0.505208" stop-color="white"/>
<stop offset="0.817708" stop-color="#F0F1F1"/>
<stop offset="1" stop-color="#DFE0E1"/>
</linearGradient>
<linearGradient id="paint7_linear_23_241" x1="349.727" y1="68.8197" x2="349.727" y2="16.8197" gradientUnits="userSpaceOnUse">
<stop/>
<stop offset="0.104167" stop-opacity="0"/>
<stop offset="0.921875" stop-opacity="0"/>
<stop offset="0.960924"/>
</linearGradient>
<linearGradient id="paint8_linear_23_241" x1="17.7266" y1="45.3686" x2="658.727" y2="42.4263" gradientUnits="userSpaceOnUse">
<stop stop-color="#E05B83"/>
<stop offset="0.310484" stop-color="#F3B44D"/>
<stop offset="0.487329" stop-color="#FBE554"/>
<stop offset="0.678694" stop-color="#9AC163"/>
<stop offset="0.813029" stop-color="#06B0E1"/>
<stop offset="0.960924" stop-color="#4762B1"/>
</linearGradient>
<linearGradient id="paint9_linear_23_241" x1="634.727" y1="16.8197" x2="634.727" y2="68.8197" gradientUnits="userSpaceOnUse">
<stop stop-color="#646464"/>
<stop offset="0.14188" stop-color="#A9A9AE"/>
<stop offset="0.468293" stop-color="#737371"/>
<stop offset="0.503018" stop-color="#E4E4E6"/>
<stop offset="0.725257" stop-color="#78787A"/>
<stop offset="0.884991" stop-color="#C1C1C1"/>
<stop offset="1" stop-color="#828282"/>
</linearGradient>
<linearGradient id="paint10_linear_23_241" x1="140.211" y1="16.8575" x2="140.211" y2="68.8197" gradientUnits="userSpaceOnUse">
<stop stop-color="#808080"/>
<stop offset="0.128724" stop-color="#A3A7AA"/>
<stop offset="0.477298" stop-color="#3D3940"/>
<stop offset="0.517364" stop-color="#F1F1F1"/>
<stop offset="0.621536" stop-color="#A2A2A2"/>
<stop offset="0.74574" stop-color="#747577"/>
<stop offset="0.881964" stop-color="#B0B4B7"/>
<stop offset="1" stop-color="#888E8C"/>
</linearGradient>
<linearGradient id="paint11_linear_23_241" x1="13.1776" y1="1.02135" x2="34.8387" y2="46.6901" gradientUnits="userSpaceOnUse">
<stop stop-color="#BBB9C4"/>
<stop offset="0.501637" stop-color="#888F95"/>
</linearGradient>
</defs>
</svg>
