<svg xmlns="http://www.w3.org/2000/svg" width="1500" height="1500" viewBox="0 0 1500 1500"><path fill="#1d1d1d" d="M1055.11 728.283a326.15 326.15 0 0 1 207.16 60.033 326.38 326.38 0 0 1 132.76 211.325l-193.66.043c-21.35-46.199-58.82-75.645-109.39-83.373-19.54-3.347-46.75-.334-65.27 6.486-39.724 14.626-64.678 39.472-82.545 76.88-63.813-.877-129.853-.065-193.799-.026 28.417-153.129 149.323-260.952 304.744-271.368m-251.777 230.42 116.364-.028c28.788-43.281 66.155-70.124 117.753-81.04 11.81-2.498 28.93-4.009 41.22-3.242 46.29.863 91.79 21.535 123.9 54.704a197 197 0 0 1 23.37 29.593l116.37-.014c-27.74-74.311-78.41-130.436-150.73-164.289-34.17-15.993-86.89-28.25-124.75-25.739-80.941 3.435-148.235 32.581-204.426 92.294-23.911 25.411-48.195 64.327-59.071 97.761"/><path fill="#1d1d1d" d="M750.398 1101.04c21.949-.63 45.921-.15 68.115-.15l125.585.01c15.213 31.71 36.069 55.52 68.282 70.91a139.92 139.92 0 0 0 106.99 5.7c38.65-13.73 64.63-40.12 81.97-76.58 64.01-.73 129.56-.02 193.69-.01-7.02 47.55-27.83 93.29-54.67 132.78a327.14 327.14 0 0 1-204.47 132.9 326.94 326.94 0 0 1-245.962-49.83c-76.369-51.56-122.156-126.04-139.53-215.73m554.832 111.43c17.31-24.94 26.33-42.32 37.15-70.61h-116.5c-28.89 42.94-67.32 71.25-118.81 81.2-47.24 9.1-96.16-.98-135.953-28.02-21.212-14.43-37.504-31.73-51.389-53.19l-116.503.03c28.021 74.11 79.218 131.89 151.932 164.75a286.38 286.38 0 0 0 219.093 6.67 287.83 287.83 0 0 0 130.98-100.83"/><path fill="#1d1d1d" d="m456.244 372.883 193.788.026a325.96 325.96 0 0 1-54.919 132.814l-.999 1.444A326.8 326.8 0 0 1 379.15 640.595a326.9 326.9 0 0 1-243.215-58.119C67.748 533.043 18.8 456.431 5.482 373.019c21.706-.628 45.594-.131 67.564-.132l126.033.008c14.446 31.186 36.1 55.111 67.236 70.368a139.6 139.6 0 0 0 107.06 6.475c39.37-13.659 65.05-40.075 82.869-76.855M561.58 482.288c15.923-23.168 25.917-42.148 35.619-68.614-38-.11-78.604-.768-116.406.039-28.458 42.585-66.961 70.959-117.8 81.071a181.06 181.06 0 0 1-136.005-27.161 181.35 181.35 0 0 1-52.402-53.943c-38.04-.134-78.808-.79-116.632.021 30.05 76.058 79.771 133.478 155.792 166.496a286.5 286.5 0 0 0 218.635 3.757A287.1 287.1 0 0 0 561.58 482.288"/><path fill="#1d1d1d" d="M1061.66 946.553c19.37-2.771 46.06 3.154 62.77 13.128 28.11 16.788 42.32 37.17 50.85 67.949h223.48c2.54 15.42 2.31 29.91.05 45.3-73.08-1.1-150.41-.21-223.62-.01-11.48 44.72-44.17 74.26-89.99 80.78-33.82 4.76-70.17-9.38-92.444-34.98-12.451-14.31-18.731-27.72-23.498-45.83l-222.721.02c-2.255-16.54-1.942-28.85.012-45.26l222.689-.02c11.728-45.715 45.512-75.421 92.422-81.077m20.49 161.917c32.22-5.24 54.06-35.64 48.74-67.84-5.33-32.21-35.8-53.961-67.98-48.541-32.06 5.397-53.7 35.711-48.4 67.781s35.56 53.81 67.64 48.6"/><path fill="#1d1d1d" d="M314.173 859.444a194.3 194.3 0 0 1 120.533 31.6c47.333 31.31 73.694 75.048 84.921 129.846l-115.527.03a91 91 0 0 0-7.631-13.85c-13.714-20.222-32.398-31.072-56.02-35.654a84.9 84.9 0 0 0-39.394 3.47c-24.035 8.157-38.889 23.826-49.894 46.044-38.04-.54-77.21-.06-115.34-.06a194.1 194.1 0 0 1 43.105-92.834c35.05-41.546 81.549-63.918 135.247-68.592M167.484 996.323l68.952.056c25.285-37.127 56.626-51.174 100.797-49.986 36.558 4.756 60.795 19.619 81.71 49.989 22.641.001 46.331.372 68.882-.045a170.56 170.56 0 0 0-88.896-97.305c-24.026-11.096-53.093-17.129-79.611-15.408-47.893 3.545-88.766 22.161-120.469 58.933a170.3 170.3 0 0 0-31.365 53.766"/><path fill="#1d1d1d" d="M1060.69 130.68c40.58-3.701 89.13 10.395 122.13 33.733 44.95 31.792 71.71 73.98 81.8 127.694-38.23.431-77.18.059-115.47.074-12.92-28.151-34.47-44.18-64.79-49.57-39.15-4.419-71.18 14.177-87.947 49.57l-115.531-.037c18.185-91.647 86.366-153.754 179.808-161.464M912.614 267.639l69.002-.046c24.714-35.972 56.344-51.39 99.804-49.97 36.88 4.841 61.38 19.074 82.52 50.007l68.95-.041c-25.55-68.706-92.46-117.021-166.71-112.716-71.469 4.737-128.328 45.141-153.566 112.766"/><path fill="#1d1d1d" d="m880.861 352.235 115.378.019c9.191 18.45 20.071 31.754 38.871 41.31a82.9 82.9 0 0 0 63.79 4.8c24.17-8.045 39.3-23.855 50.39-46.14l115.29.049c-4.62 29.457-16.02 54.427-32.38 78.97-29.62 40.882-70.41 68.739-120.19 78.925a194.87 194.87 0 0 1-146.904-28.541c-46.555-30.968-73.499-75.173-84.245-129.392m329.939 66.622c9.2-13.376 16.75-26.441 22.11-41.929-21.02-.415-48.02-.677-69.02-.002-17.82 25.842-40.42 42.71-71.85 48.403a107.83 107.83 0 0 1-80.96-17.706 108.1 108.1 0 0 1-29.375-30.765c-21.758-.144-45.399-.546-67.021-.017l-1.468.457c.244 3.844 3.344 9.871 5.025 13.438 10.125 21.48 24.073 40.462 41.909 56.247a169.48 169.48 0 0 0 124.18 42.285 169.67 169.67 0 0 0 116.32-57.681c3.41-3.946 7.14-8.468 10.15-12.73"/><path fill="#1d1d1d" d="m404.082 1080.97 115.524.05c-6.034 31.03-14.614 51.88-32.02 78.12a194.62 194.62 0 0 1-124.76 80.46 194.73 194.73 0 0 1-146.755-32 194.2 194.2 0 0 1-80.206-126.57c37.919-.57 77.191-.05 115.22-.05 9.611 18.77 20.323 31.98 39.693 41.6a82.8 82.8 0 0 0 63.793 4.18c23.546-8.13 38.778-23.83 49.511-45.79m-167.656 24.35-69.139-.01c18.447 45.77 47.624 79.79 93.822 99.48a169.98 169.98 0 0 0 130.176 1.18c31.337-12.69 55.75-32.91 75.563-60.06 8.585-12.78 16.102-25.89 20.991-40.6l-68.487-.01c-2.485 2.97-4.745 6.05-7.083 9.13-17.775 23.38-45.439 38.19-74.628 40.81a107.8 107.8 0 0 1-79.9-25.34c-8.644-7.34-15.096-15.11-21.315-24.58"/><path fill="#1d1d1d" d="M1069.04 260.275c31.9-2.502 56.98 18.46 65.42 48.358l132.48-.025c1.2 10.694 1.2 16.726-.04 27.348-41.78-1.396-90.16-.194-132.53-.107a61.9 61.9 0 0 1-12.83 25.975c-11.77 14.08-26.74 20.692-44.7 22.366-9.92 1.427-25.45-2.548-34.1-7.594-17.03-9.935-25.75-22.195-30.99-40.706-18.228-.473-38.056-.121-56.392-.128q-38.364-.165-76.726.174c-1.317-11.821-1.196-15.303-.066-27.281 43.392-.845 89.465-.108 133.104-.017 7.53-28.502 28.3-45.464 57.37-48.363m7.46 96.732c19.24-2.039 33.17-19.309 31.09-38.544s-19.38-33.127-38.61-31.004c-19.18 2.116-33.02 19.352-30.94 38.528 2.07 19.176 19.28 33.053 38.46 31.02"/><path fill="#1d1d1d" d="M322.479 989.053a62.64 62.64 0 0 1 35.282 7.485c16.857 9.262 25.783 22.762 30.99 40.792 43.896.61 89.082.05 133.081.04 1.243 11.48 1.082 15.52.104 26.96H388.802c-7.294 27.53-25.712 43.07-53.29 48.21-34.576 1.45-60.296-13.7-69.543-48.24H133.463c-1.21-11.18-1.185-15.72.035-26.92l132.458.01a64 64 0 0 1 12.633-25.71c11.468-14.025 26.134-20.827 43.89-22.627m8.948 96.587a34.98 34.98 0 0 0 24.016-55.98 34.99 34.99 0 0 0-32.598-13.45c-18.95 2.61-32.287 19.96-29.94 38.95 2.346 18.98 19.507 32.56 38.522 30.48"/><path fill="#1d1d1d" d="M307.207 0h40.408c9.728 2.03 27.242 2.948 39.58 5.186a323.8 323.8 0 0 1 125.716 52.065c74.435 51.225 120.702 126.062 137.116 214.382l-193.709.039c-15.445-32.743-37.44-57.138-70.884-72.295a139.87 139.87 0 0 0-107.638-3.27c-36.214 13.857-62.885 40.409-78.634 75.559-63.821-.891-129.887-.05-193.878-.051 9.514-50.54 26.265-92.966 56.404-135.129A326.7 326.7 0 0 1 249.839 9.041a333 333 0 0 1 34.7-6.415c7.437-.952 15.366-1.403 22.668-2.626M58.025 230.696l116.512-.03c38.108-57.823 94.363-86.49 163.395-84.247a180.28 180.28 0 0 1 124.497 59.949c7.386 8.288 12.311 15.265 18.439 24.311l116.26-.011a286.65 286.65 0 0 0-147.14-162.717 285.95 285.95 0 0 0-130.796-27.333C196.989 46.95 101.724 116.37 58.025 230.696"/><path fill="#1d1d1d" d="M225.219 299.48c7.994-29.51 23.121-52.109 50.142-67.56a107.2 107.2 0 0 1 81.941-9.935 105.24 105.24 0 0 1 63.3 49.935c4.33 7.787 8.744 18.763 10.524 27.54l222.699.013c2.07 16.255 2.409 29.124.052 45.438-73.625-.182-149.21-.761-222.787-.002-7.036 28.43-22.834 51.201-48.166 66.398a106.7 106.7 0 0 1-81.467 11.659 105.36 105.36 0 0 1-64.547-48.672c-5.84-10.003-8.757-18.322-11.703-29.414-73.903-.038-149.775-.95-223.498.035-.476-3.14-.99-7.457-1.709-10.446v-24.965c.62-3.409 1.203-6.578 1.65-10.025zm106.2 81.555c32.415-2.026 57.093-29.877 55.203-62.301-1.891-32.423-29.638-57.218-62.069-55.463-32.624 1.765-57.597 29.713-55.696 62.329s29.954 57.473 62.562 55.435"/></svg>