<svg xmlns="http://www.w3.org/2000/svg" width="1500" height="1500" viewBox="0 0 1500 1500"><path fill="#1c1c1b" fill-opacity=".616" d="M314.697 40.6c43.185-3.736 98.816 9.298 137.611 28.143a286.27 286.27 0 0 1 145.22 162.085l-116.903.115a237 237 0 0 0-14.159-19.314c-32.23-38.894-75.787-60.233-125.71-64.782-12.107-1.907-37.742.666-49.68 3.253-50.059 10.846-88.403 38.317-116.198 80.771l-117.092.002C89.952 135.899 177.397 62.006 275.878 44.968c13.252-2.293 25.4-3.52 38.819-4.369"/><path fill="#1c1c1b" fill-opacity=".616" d="M1061.09 768.637c42-3.675 97.91 9.621 135.68 27.859a286.58 286.58 0 0 1 145.88 162.343l-117 .093a227 227 0 0 0-14.14-19.334c-32.77-39.499-76.34-60.218-126.92-64.789-68.49-5.264-126.756 28.644-164.665 84.058l-117.034.018a284.2 284.2 0 0 1 56.24-94.888c53.108-59.69 122.811-90.82 201.959-95.36"/><path fill="#1c1c1b" fill-opacity=".616" d="M316.06 883.61c22.435-3.47 61.532 4.99 82.12 14.743 44.084 20.884 73.172 53.264 90.231 98.425a5482 5482 0 0 0-69.535.048 226 226 0 0 0-4.201-5.894c-18.806-25.339-42.89-39.243-73.919-43.798a105.8 105.8 0 0 0-33.936 1.266c-30.525 6.02-53.051 22.87-70.12 48.357l-69.645-.027c21.714-64.966 81.703-107.568 149.005-113.12"/><path fill="#1c1c1b" fill-opacity=".616" d="M1062.13 154.958c27.56-2.207 58.07 3.905 83.01 15.6a170.76 170.76 0 0 1 88.24 97.4l-69.62.047c-19.85-28.811-44.49-45.464-79.66-49.685-42.03-5.731-78.83 16.077-102.33 49.631l-69.644.052a169.8 169.8 0 0 1 32.362-55.298 168.91 168.91 0 0 1 117.642-57.747"/></svg>